<mxfile host="app.diagrams.net" modified="2022-11-25T21:56:26.335Z" agent="5.0 (Macintosh; Intel Mac OS X 10_14_6) AppleWebKit/537.36 (KHTML, like Gecko) Chrome/107.0.0.0 Safari/537.36" etag="SW-eq-cuaSI6myx9P1em" version="16.5.6" type="github">
  <diagram id="nqIfiNH1P2ZqjpkiBP_H" name="Page-1">
    <mxGraphModel dx="2310" dy="966" grid="1" gridSize="10" guides="1" tooltips="1" connect="1" arrows="1" fold="1" page="1" pageScale="1" pageWidth="827" pageHeight="1169" math="0" shadow="0">
      <root>
        <mxCell id="0" />
        <mxCell id="1" parent="0" />
        <mxCell id="N5eEoTX--uOdIuIJssPW-21" value="" style="rounded=1;whiteSpace=wrap;html=1;fillColor=#dae8fc;strokeColor=#6c8ebf;" parent="1" vertex="1">
          <mxGeometry x="420" y="690" width="300" height="190" as="geometry" />
        </mxCell>
        <mxCell id="N5eEoTX--uOdIuIJssPW-15" value="" style="rounded=1;whiteSpace=wrap;html=1;dashed=1;fillColor=#f5f5f5;strokeColor=#666666;fontColor=#333333;" parent="1" vertex="1">
          <mxGeometry x="827" y="90" width="530" height="570" as="geometry" />
        </mxCell>
        <mxCell id="N5eEoTX--uOdIuIJssPW-14" value="" style="rounded=1;whiteSpace=wrap;html=1;fillColor=#dae8fc;strokeColor=#6c8ebf;" parent="1" vertex="1">
          <mxGeometry x="190" y="90" width="530" height="570" as="geometry" />
        </mxCell>
        <mxCell id="N5eEoTX--uOdIuIJssPW-5" style="edgeStyle=orthogonalEdgeStyle;rounded=0;orthogonalLoop=1;jettySize=auto;html=1;entryX=0;entryY=0.578;entryDx=0;entryDy=0;entryPerimeter=0;" parent="1" source="N5eEoTX--uOdIuIJssPW-1" target="N5eEoTX--uOdIuIJssPW-3" edge="1">
          <mxGeometry relative="1" as="geometry">
            <Array as="points">
              <mxPoint x="500" y="335" />
              <mxPoint x="500" y="218" />
            </Array>
          </mxGeometry>
        </mxCell>
        <mxCell id="N5eEoTX--uOdIuIJssPW-26" value="CRUD operation" style="edgeLabel;html=1;align=center;verticalAlign=middle;resizable=0;points=[];fontSize=13;" parent="N5eEoTX--uOdIuIJssPW-5" vertex="1" connectable="0">
          <mxGeometry x="0.5476" y="-1" relative="1" as="geometry">
            <mxPoint as="offset" />
          </mxGeometry>
        </mxCell>
        <mxCell id="N5eEoTX--uOdIuIJssPW-7" style="edgeStyle=orthogonalEdgeStyle;rounded=0;orthogonalLoop=1;jettySize=auto;html=1;entryX=0.175;entryY=0.5;entryDx=0;entryDy=0;entryPerimeter=0;" parent="1" source="N5eEoTX--uOdIuIJssPW-1" target="N5eEoTX--uOdIuIJssPW-6" edge="1">
          <mxGeometry relative="1" as="geometry" />
        </mxCell>
        <mxCell id="N5eEoTX--uOdIuIJssPW-25" value="publish&lt;br&gt;Events" style="edgeLabel;html=1;align=center;verticalAlign=middle;resizable=0;points=[];fontSize=13;" parent="N5eEoTX--uOdIuIJssPW-7" vertex="1" connectable="0">
          <mxGeometry x="0.2175" y="1" relative="1" as="geometry">
            <mxPoint as="offset" />
          </mxGeometry>
        </mxCell>
        <mxCell id="N5eEoTX--uOdIuIJssPW-9" style="edgeStyle=orthogonalEdgeStyle;rounded=0;orthogonalLoop=1;jettySize=auto;html=1;entryX=0;entryY=0.5;entryDx=0;entryDy=0;" parent="1" source="N5eEoTX--uOdIuIJssPW-1" target="N5eEoTX--uOdIuIJssPW-8" edge="1">
          <mxGeometry relative="1" as="geometry">
            <Array as="points">
              <mxPoint x="500" y="335" />
              <mxPoint x="500" y="780" />
            </Array>
          </mxGeometry>
        </mxCell>
        <mxCell id="N5eEoTX--uOdIuIJssPW-27" value="CRUD operation" style="edgeLabel;html=1;align=center;verticalAlign=middle;resizable=0;points=[];fontSize=13;" parent="N5eEoTX--uOdIuIJssPW-9" vertex="1" connectable="0">
          <mxGeometry x="-0.3111" relative="1" as="geometry">
            <mxPoint as="offset" />
          </mxGeometry>
        </mxCell>
        <mxCell id="N5eEoTX--uOdIuIJssPW-11" value="" style="edgeStyle=orthogonalEdgeStyle;rounded=0;orthogonalLoop=1;jettySize=auto;html=1;" parent="1" source="N5eEoTX--uOdIuIJssPW-1" target="N5eEoTX--uOdIuIJssPW-10" edge="1">
          <mxGeometry relative="1" as="geometry" />
        </mxCell>
        <mxCell id="N5eEoTX--uOdIuIJssPW-1" value="Node.js application" style="rounded=1;whiteSpace=wrap;html=1;fillColor=#dae8fc;strokeColor=#6c8ebf;gradientColor=#7ea6e0;" parent="1" vertex="1">
          <mxGeometry x="270" y="190" width="170" height="290" as="geometry" />
        </mxCell>
        <mxCell id="N5eEoTX--uOdIuIJssPW-3" value="DB" style="shape=cylinder3;whiteSpace=wrap;html=1;boundedLbl=1;backgroundOutline=1;size=15;" parent="1" vertex="1">
          <mxGeometry x="605" y="160" width="90" height="100" as="geometry" />
        </mxCell>
        <mxCell id="N5eEoTX--uOdIuIJssPW-4" value="R&lt;br&gt;E&lt;br&gt;S&lt;br&gt;T" style="rounded=0;whiteSpace=wrap;html=1;" parent="1" vertex="1">
          <mxGeometry x="260" y="235" width="20" height="200" as="geometry" />
        </mxCell>
        <mxCell id="N5eEoTX--uOdIuIJssPW-18" style="edgeStyle=orthogonalEdgeStyle;rounded=0;orthogonalLoop=1;jettySize=auto;html=1;entryX=-0.02;entryY=0.632;entryDx=0;entryDy=0;entryPerimeter=0;exitX=0.825;exitY=0.5;exitDx=0;exitDy=0;exitPerimeter=0;dashed=1;" parent="1" source="N5eEoTX--uOdIuIJssPW-6" target="N5eEoTX--uOdIuIJssPW-16" edge="1">
          <mxGeometry relative="1" as="geometry" />
        </mxCell>
        <mxCell id="N5eEoTX--uOdIuIJssPW-24" value="listen to events" style="edgeLabel;html=1;align=center;verticalAlign=middle;resizable=0;points=[];fontSize=13;" parent="N5eEoTX--uOdIuIJssPW-18" vertex="1" connectable="0">
          <mxGeometry x="-0.1674" y="3" relative="1" as="geometry">
            <mxPoint x="-16" y="3" as="offset" />
          </mxGeometry>
        </mxCell>
        <mxCell id="N5eEoTX--uOdIuIJssPW-6" value="Cloud&#xa;Pub/Sub" style="sketch=0;html=1;fillColor=#5184F3;strokeColor=none;verticalAlign=top;labelPosition=center;verticalLabelPosition=bottom;align=center;spacingTop=-6;fontSize=11;fontStyle=1;fontColor=#999999;shape=mxgraph.gcp2.hexIcon;prIcon=cloud_pubsub" parent="1" vertex="1">
          <mxGeometry x="580" y="286.44" width="140" height="97.13" as="geometry" />
        </mxCell>
        <mxCell id="N5eEoTX--uOdIuIJssPW-8" value="kong Gateway" style="rounded=0;whiteSpace=wrap;html=1;" parent="1" vertex="1">
          <mxGeometry x="570" y="750" width="120" height="60" as="geometry" />
        </mxCell>
        <mxCell id="N5eEoTX--uOdIuIJssPW-10" value="Cloud&#xa;Storage" style="sketch=0;html=1;fillColor=#5184F3;strokeColor=none;verticalAlign=top;labelPosition=center;verticalLabelPosition=bottom;align=center;spacingTop=-6;fontSize=11;fontStyle=1;fontColor=#999999;shape=mxgraph.gcp2.hexIcon;prIcon=cloud_storage" parent="1" vertex="1">
          <mxGeometry x="295" y="530" width="120" height="90" as="geometry" />
        </mxCell>
        <mxCell id="N5eEoTX--uOdIuIJssPW-13" style="edgeStyle=orthogonalEdgeStyle;rounded=0;orthogonalLoop=1;jettySize=auto;html=1;entryX=-0.25;entryY=0.57;entryDx=0;entryDy=0;entryPerimeter=0;" parent="1" source="N5eEoTX--uOdIuIJssPW-12" target="N5eEoTX--uOdIuIJssPW-4" edge="1">
          <mxGeometry relative="1" as="geometry" />
        </mxCell>
        <mxCell id="N5eEoTX--uOdIuIJssPW-22" value="&lt;font style=&quot;font-size: 13px&quot;&gt;API CRUD operation&lt;/font&gt;" style="edgeLabel;html=1;align=center;verticalAlign=middle;resizable=0;points=[];" parent="N5eEoTX--uOdIuIJssPW-13" vertex="1" connectable="0">
          <mxGeometry x="-0.0916" y="4" relative="1" as="geometry">
            <mxPoint x="-14" y="4" as="offset" />
          </mxGeometry>
        </mxCell>
        <mxCell id="N5eEoTX--uOdIuIJssPW-12" value="Clinet" style="sketch=0;aspect=fixed;pointerEvents=1;shadow=0;dashed=0;html=1;strokeColor=none;labelPosition=center;verticalLabelPosition=bottom;verticalAlign=top;align=center;fillColor=#00188D;shape=mxgraph.azure.computer" parent="1" vertex="1">
          <mxGeometry x="-80" y="312.56" width="80" height="72" as="geometry" />
        </mxCell>
        <mxCell id="N5eEoTX--uOdIuIJssPW-19" style="edgeStyle=orthogonalEdgeStyle;rounded=0;orthogonalLoop=1;jettySize=auto;html=1;entryX=0;entryY=0.305;entryDx=0;entryDy=0;entryPerimeter=0;dashed=1;" parent="1" source="N5eEoTX--uOdIuIJssPW-16" target="N5eEoTX--uOdIuIJssPW-4" edge="1">
          <mxGeometry relative="1" as="geometry">
            <Array as="points">
              <mxPoint x="1085" y="20" />
              <mxPoint x="140" y="20" />
              <mxPoint x="140" y="296" />
            </Array>
          </mxGeometry>
        </mxCell>
        <mxCell id="N5eEoTX--uOdIuIJssPW-23" value="Fetch API Specification" style="edgeLabel;html=1;align=center;verticalAlign=middle;resizable=0;points=[];fontSize=13;" parent="N5eEoTX--uOdIuIJssPW-19" vertex="1" connectable="0">
          <mxGeometry x="-0.3539" y="4" relative="1" as="geometry">
            <mxPoint x="-119" y="-4" as="offset" />
          </mxGeometry>
        </mxCell>
        <mxCell id="N5eEoTX--uOdIuIJssPW-16" value="REACT APP" style="rounded=0;whiteSpace=wrap;html=1;dashed=1;" parent="1" vertex="1">
          <mxGeometry x="1010" y="237" width="150" height="155" as="geometry" />
        </mxCell>
        <mxCell id="TmNz2Kt6fCknfRb0DdZG-1" value="&lt;font style=&quot;font-size: 17px&quot;&gt;API Manager&lt;/font&gt;" style="text;html=1;strokeColor=none;fillColor=none;align=center;verticalAlign=middle;whiteSpace=wrap;rounded=0;fontSize=13;" vertex="1" parent="1">
          <mxGeometry x="360" y="100" width="170" height="30" as="geometry" />
        </mxCell>
        <mxCell id="TmNz2Kt6fCknfRb0DdZG-2" value="&lt;font style=&quot;font-size: 17px&quot;&gt;Developer Portal&lt;/font&gt;" style="text;html=1;strokeColor=none;fillColor=none;align=center;verticalAlign=middle;whiteSpace=wrap;rounded=0;fontSize=13;" vertex="1" parent="1">
          <mxGeometry x="990" y="100" width="170" height="30" as="geometry" />
        </mxCell>
        <mxCell id="TmNz2Kt6fCknfRb0DdZG-3" value="&lt;font style=&quot;font-size: 17px&quot;&gt;API Gateway&lt;/font&gt;" style="text;html=1;strokeColor=none;fillColor=none;align=center;verticalAlign=middle;whiteSpace=wrap;rounded=0;fontSize=13;" vertex="1" parent="1">
          <mxGeometry x="485" y="700" width="170" height="30" as="geometry" />
        </mxCell>
      </root>
    </mxGraphModel>
  </diagram>
</mxfile>
